<?xml version="1.0" encoding="UTF-8"?> <svg xmlns="http://www.w3.org/2000/svg" id="a2e56e8f-7d66-4136-b759-a34977080202" data-name="Layer 1" viewBox="0 0 129.02 128.46"><path d="M124.52,64.26a59.58,59.58,0,0,1-10.13,33.32,60.3,60.3,0,0,1-27,22.07,59.61,59.61,0,0,1-23,4.58,61.2,61.2,0,0,1-11.76-1.15,60.31,60.31,0,0,1-30.85-16.43A58.92,58.92,0,0,1,5.33,76,59.84,59.84,0,0,1,8.77,41.33a59.06,59.06,0,0,1,22.14-26.9,60.53,60.53,0,0,1,64-1.71,60.25,60.25,0,0,1,29.61,51.54Zm-9.44,0a49.81,49.81,0,0,0-14.83-35.7,50.38,50.38,0,0,0-35.9-14.83,51.08,51.08,0,0,0-28.16,8.46A49.92,49.92,0,0,0,17.43,44.88,50.81,50.81,0,0,0,14.57,74.1,49.26,49.26,0,0,0,28.45,100a51,51,0,0,0,35.86,14.87,50.81,50.81,0,0,0,42.18-22.49A49.75,49.75,0,0,0,115.08,64.26Z" fill="#2a55ba"></path><path d="M64.31,112a48.46,48.46,0,0,0,18.34-3.65,48,48,0,0,0,21.5-17.6,47.49,47.49,0,0,0-5.9-60.2,47.91,47.91,0,0,0-33.9-14,48.54,48.54,0,0,0-26.6,8A47.41,47.41,0,0,0,20.05,46a48.2,48.2,0,0,0-2.7,27.6A46.75,46.75,0,0,0,30.45,98,48.23,48.23,0,0,0,64.31,112Zm19.42-1a51.07,51.07,0,0,1-19.42,3.86A51,51,0,0,1,28.45,100,49.26,49.26,0,0,1,14.57,74.1a50.81,50.81,0,0,1,2.86-29.22A49.92,49.92,0,0,1,36.19,22.19a51.08,51.08,0,0,1,28.16-8.46,50.38,50.38,0,0,1,35.9,14.83,50.32,50.32,0,0,1,6.24,63.79A50.6,50.6,0,0,1,83.73,111Z" fill="#2a55ba"></path><path d="M88.45,122.26a62.58,62.58,0,0,1-24.1,4.8,63.13,63.13,0,0,1-44.6-18.4,62,62,0,0,1-17.2-32.1,62.81,62.81,0,0,1,26.8-64.5,63.63,63.63,0,0,1,35-10.5,62.71,62.71,0,0,1,52.4,97.6A63.39,63.39,0,0,1,88.45,122.26ZM94.91,12.72a60.53,60.53,0,0,0-64,1.71A59.06,59.06,0,0,0,8.77,41.33,59.84,59.84,0,0,0,5.33,76a58.92,58.92,0,0,0,16.41,30.64,60.31,60.31,0,0,0,30.85,16.43,61.2,61.2,0,0,0,11.76,1.15,59.61,59.61,0,0,0,23-4.58,60.3,60.3,0,0,0,27-22.07A60,60,0,0,0,94.91,12.72Z" fill="#2a55ba"></path><path d="M90.35,39.66a3.7,3.7,0,0,0-.6-2.1,4.1,4.1,0,0,0-1.6-1.6l-9.1-5.2a4.33,4.33,0,0,0-4.4,0l-10.6,6.1-10.7-6.1a4.33,4.33,0,0,0-4.4,0L39.85,36a10.59,10.59,0,0,0-1.2,1l-.2.2a4.59,4.59,0,0,0-.7,1.6,5.44,5.44,0,0,0,0,1.8,4.59,4.59,0,0,0,.7,1.6,4.89,4.89,0,0,0,1.3,1.2L61.65,56a4.33,4.33,0,0,0,4.4,0l22.1-12.6a4.1,4.1,0,0,0,1.6-1.6,3.7,3.7,0,0,0,.6-2.1Z" fill="#2a55ba"></path><path d="M94.35,54l-21.9,12.6a4.1,4.1,0,0,0-1.6,1.6,4.2,4.2,0,0,0-.6,2.1v25.1a4.15,4.15,0,0,0,.3,1.6,3.92,3.92,0,0,0,2.3,2.3,4.53,4.53,0,0,0,1.6.3,4.28,4.28,0,0,0,2.2-.6l9.1-5.2a4.1,4.1,0,0,0,1.6-1.6,4.2,4.2,0,0,0,.6-2.1V78l10.7-6.1a4.1,4.1,0,0,0,1.6-1.6,4.2,4.2,0,0,0,.6-2.1V57.66a3.7,3.7,0,0,0-.6-2.1,4.1,4.1,0,0,0-1.6-1.6,4.28,4.28,0,0,0-2.2-.6,4.2,4.2,0,0,0-2.1.6Z" fill="#2a55ba"></path><path d="M56.15,65.66l-21.9-12.6a5.46,5.46,0,0,0-1.8-.6,3.59,3.59,0,0,0-1.8.2,5.37,5.37,0,0,0-1.6,1,4.35,4.35,0,0,0-1,1.6,4,4,0,0,0-.3,1.5v10.5a3.7,3.7,0,0,0,.6,2.1A4.1,4.1,0,0,0,30,71l10.7,6.1v12.1a3.7,3.7,0,0,0,.6,2.1,4.1,4.1,0,0,0,1.6,1.6l9.1,5.2a4.33,4.33,0,0,0,4.4,0,4.1,4.1,0,0,0,1.6-1.6,4.2,4.2,0,0,0,.6-2.1v-25a3.7,3.7,0,0,0-.6-2.1,9,9,0,0,0-1.8-1.6Z" fill="#2a55ba"></path></svg> 