<svg xmlns="http://www.w3.org/2000/svg" viewBox="0 0 24 24" id="buymeacoffee"><path fill="#FFEB3B" d="M7.58 23.5h8.781l2.894-17.678H4.684z"></path><path fill="#212121" d="M16.786 24H7.155L4.096 5.322h15.748L16.786 24zm-8.782-1h7.932l2.73-16.678H5.273L8.004 23z"></path><path fill="#FAFAFA" d="M20 5.822H4V3.299h16z"></path><path fill="#212121" d="M20.5 6.322h-17V2.799h17v3.523zm-16-1h15V3.799h-15v1.523z"></path><path fill="#FAFAFA" d="M6.975.5h9.938l1.198 2.8-12.334-.001z"></path><path fill="#212121" d="M18.869 3.8 5.02 3.799 6.645 0h10.598l1.626 3.8zM6.535 2.799l10.819.001-.771-1.8H7.305l-.77 1.799z"></path><path fill="#FAFAFA" d="m4.29 10.3 15.311-.001-1.438 7.731H5.728z"></path><path fill="#212121" d="M18.579 18.53H5.312L3.689 9.8l16.514-.001-1.624 8.731zm-12.435-1h11.604L19 10.799 4.892 10.8l1.252 6.73z"></path></svg>